<svg width="102" height="47" viewBox="0 0 102 47" fill="none" xmlns="http://www.w3.org/2000/svg">
<path d="M8.6 46V13.424H0.92V3.248L20.376 0.688L21.016 4.528L20.376 10.928V46H8.6ZM27.435 46V37.104C27.435 37.104 27.8403 36.848 28.651 36.336C29.4617 35.824 30.507 35.12 31.787 34.224C33.067 33.328 34.4537 32.3253 35.947 31.216C37.4403 30.1067 38.8483 28.9547 40.171 27.76C42.091 26.096 43.691 24.624 44.971 23.344C46.251 22.0213 47.211 20.72 47.851 19.44C48.491 18.16 48.811 16.688 48.811 15.024C48.811 12.2933 46.9977 10.928 43.371 10.928C41.579 10.928 39.7657 11.1627 37.931 11.632C36.139 12.0587 34.475 12.5707 32.939 13.168C31.4457 13.7653 30.2723 14.2773 29.419 14.704V3.824C30.6563 3.14133 32.6403 2.37333 35.371 1.52C38.1017 0.666664 41.4297 0.239998 45.355 0.239998C50.9017 0.239998 54.955 1.41333 57.515 3.76C60.075 6.064 61.355 9.56267 61.355 14.256C61.355 16.688 60.907 18.864 60.011 20.784C59.115 22.704 57.963 24.432 56.555 25.968C55.147 27.4613 53.6323 28.7627 52.011 29.872C50.4323 30.9813 48.9177 31.92 47.467 32.688C46.0163 33.4133 44.8217 34.0107 43.883 34.48L44.203 35.76L61.355 34.48V46H27.435ZM81.8575 46.64C80.4922 46.64 79.1908 46.5973 77.9535 46.512C76.7588 46.4267 75.6282 46.2987 74.5615 46.128L66.4975 42.48L69.6975 32.304L82.4975 35.824C84.9722 35.824 86.7642 35.4187 87.8735 34.608C88.9828 33.7547 89.5375 32.688 89.5375 31.408C89.5375 30.256 89.1322 29.4453 88.3215 28.976C87.5108 28.5067 86.1455 28.272 84.2255 28.272H76.2895V17.968H83.4575C84.9082 17.968 86.0602 17.6693 86.9135 17.072C87.8095 16.4747 88.2575 15.6427 88.2575 14.576C88.2575 13.2107 87.8522 12.272 87.0415 11.76C86.2308 11.2053 85.0788 10.928 83.5855 10.928C81.4522 10.928 79.4042 11.1413 77.4415 11.568C75.4788 11.9947 73.7295 12.5067 72.1935 13.104C70.6575 13.6587 69.3988 14.1493 68.4175 14.576V3.696C69.2708 3.26933 70.4868 2.77867 72.0655 2.224C73.6442 1.66933 75.5215 1.17867 77.6975 0.751999C79.9162 0.325333 82.3268 0.112 84.9295 0.112C89.7508 0.112 93.3988 1.17867 95.8735 3.312C98.3908 5.40266 99.6495 8.368 99.6495 12.208C99.6495 14.4267 99.1802 16.2613 98.2415 17.712C97.3455 19.12 96.3642 20.2507 95.2975 21.104C97.0895 21.9147 98.5828 23.1307 99.7775 24.752C101.015 26.3307 101.634 28.528 101.634 31.344C101.634 41.5413 95.0415 46.64 81.8575 46.64Z" fill="#EAF1FF"/>
</svg>
