<svg width="119" height="47" viewBox="0 0 119 47" fill="none" xmlns="http://www.w3.org/2000/svg">
<path d="M0.64 46L3.712 35.184V27.056L8.448 25.136L16.768 0.751999H33.344L43.648 29.424L48.576 38.512V46H37.248L34.048 35.76H15.424L12.672 46H0.64ZM19.648 25.904H30.528L25.664 11.248H24.32L19.648 25.904ZM72.9955 46.64C70.9475 46.64 69.3048 46.448 68.0675 46.064C66.8728 45.7227 65.9982 45.3813 65.4435 45.04C64.8888 44.656 64.6115 44.464 64.6115 44.464V46.064H53.0915V10.992L51.7475 4.592L53.0915 0.751999H64.6115V11.056L63.9715 18.288L64.6115 18.608C65.4648 17.7973 66.5102 17.0293 67.7475 16.304C69.0275 15.536 70.7768 15.152 72.9955 15.152C76.7928 15.152 79.7582 16.368 81.8915 18.8C84.0675 21.232 85.1555 25.072 85.1555 30.32C85.1555 34.2453 84.6008 37.424 83.4915 39.856C82.4248 42.2453 80.9742 43.9733 79.1395 45.04C77.3048 46.1067 75.2568 46.64 72.9955 46.64ZM67.5555 37.872C69.2195 37.872 70.5422 37.296 71.5235 36.144C72.5048 34.9493 72.9955 33.1787 72.9955 30.832C72.9955 28.528 72.5902 26.864 71.7795 25.84C70.9688 24.7733 69.7742 24.24 68.1955 24.24L64.6115 25.584V37.04C64.6115 37.04 64.8248 37.1893 65.2515 37.488C65.7208 37.744 66.4888 37.872 67.5555 37.872ZM104.03 46.64C101.086 46.64 98.4193 46.1493 96.03 45.168C93.6833 44.1867 91.806 42.544 90.398 40.24C89.0327 37.936 88.35 34.8213 88.35 30.896C88.35 26.928 89.0967 23.8133 90.59 21.552C92.0833 19.248 94.0247 17.6053 96.414 16.624C98.8033 15.6427 101.342 15.152 104.03 15.152C106.377 15.152 108.382 15.2373 110.046 15.408C111.753 15.5787 112.883 15.728 113.438 15.856L118.43 21.488L113.31 28.464L105.95 24.112C102.281 24.112 100.446 26.3733 100.446 30.896C100.446 33.2427 101.001 34.9707 102.11 36.08C103.219 37.1467 104.926 37.68 107.23 37.68C109.534 37.68 111.603 37.36 113.438 36.72C115.273 36.08 116.702 35.4827 117.726 34.928V44.144C116.403 44.8267 114.654 45.424 112.478 45.936C110.345 46.4053 107.529 46.64 104.03 46.64Z" fill="#EAF1FF"/>
</svg>
