<svg xmlns="http://www.w3.org/2000/svg" viewBox="0 0 39 52.5"><defs><style>.cls-1{fill:none;stroke:#fff;stroke-miterlimit:10;stroke-width:3px;}.cls-2{fill:#fff;}</style></defs><title>gembok</title><g id="Layer_2" data-name="Layer 2"><g id="Layer_1-2" data-name="Layer 1"><path class="cls-1" d="M1.5,24h36a0,0,0,0,1,0,0V41.17A9.83,9.83,0,0,1,27.67,51H11.33A9.83,9.83,0,0,1,1.5,41.17V24A0,0,0,0,1,1.5,24Z"/><path class="cls-1" d="M19,1.5h0a14,14,0,0,1,14,14v8a0,0,0,0,1,0,0H5a0,0,0,0,1,0,0v-8A14,14,0,0,1,19,1.5Z"/><path class="cls-2" d="M21,33.5H16a1,1,0,0,0-1,1v1a1,1,0,0,0,1,1h0a1,1,0,0,1,1,1v3a1,1,0,0,0,1,1h1a1,1,0,0,0,1-1v-3a1,1,0,0,1,1-1h0a1,1,0,0,0,1-1v-1A1,1,0,0,0,21,33.5Z"/></g></g></svg>