<svg id="Capa_1" enable-background="new 0 0 510 510" height="512" viewBox="0 0 510 510" width="512" xmlns="http://www.w3.org/2000/svg"><g><path d="m0 112h510v398h-510z" fill="#6cf"/><path d="m287.36 112h222.64v398h-222.64z" fill="#59abff"/><path d="m510 276.77v34.81l-136 80v118.42h-30v-112h-162v112h-30v-122.46l-24.85-37.28-127.15 84.77v-36.06l110.51-73.67-22.51-33.76v-179.54h30v170.46l57.03 85.54h179.89l25.25-14.86-42.96-100.23 27.58-11.82 41.45 96.72z" fill="#696e73"/><path d="m510 276.77v34.81l-136 80v118.42h-30v-112h-56.64v-30h67.56l25.25-14.86-42.96-100.23 27.58-11.82 41.45 96.72z" fill="#4b5055"/><path d="m405.277 133.362c0 31.11-22.2 57.558-64.34 107.728-30.29 36.06-43.931 68.76-45.191 69.91l-8.385 20.33-10.48-9.26c-1.26-1.15-31.08-28.511-61.37-64.57-42.141-50.17-63.511-91.39-63.511-122.5 0-74.44 60.56-135 135-135s118.277 58.922 118.277 133.362z" fill="#f7f9fa"/><path d="m422 135c0 31.11-21.37 72.33-63.51 122.5-30.29 36.06-60.11 63.42-61.37 64.57l-9.76 9.26-.36-331.33c74.44 0 135 60.56 135 135z" fill="#e5eaee"/><path d="m363.17 124.42c0 12.91-5.02 25.04-14.15 34.16l-61.47 61.42-.298.298-10.522-10.688-51.03-51.03c-9.12-9.12-14.15-21.25-14.15-34.16 0-12.9 5.03-25.03 14.15-34.15 16.75-16.76 42.569-18.601 61.389-5.551 18.82-13.05 45.181-11.209 61.931 5.551 9.13 9.12 14.15 21.25 14.15 34.15z" fill="#e40058"/><path d="m363.17 124.42c0 12.91-5.02 25.04-14.15 34.16l-61.47 61.42-.298.298-.163-135.58c18.82-13.05 45.181-11.209 61.931 5.551 9.13 9.121 14.15 21.251 14.15 34.151z" fill="#c40048"/></g></svg>