<svg xmlns="http://www.w3.org/2000/svg" xmlns:xlink="http://www.w3.org/1999/xlink" viewBox="0 0 1031.65 735.2"><defs><style>.cls-1,.cls-27,.cls-30,.cls-33{fill:none;}.cls-2,.cls-37,.cls-40{fill:#8babd9;}.cls-3{fill:#a2c4e7;}.cls-4{fill:#789ab7;}.cls-17,.cls-18,.cls-20,.cls-21,.cls-22,.cls-23,.cls-26,.cls-28,.cls-34,.cls-4,.cls-7{opacity:0.5;}.cls-5{fill:#234398;}.cls-6{fill:#597fc0;}.cls-7{fill:#1e2f5d;}.cls-39,.cls-8{fill:#693192;}.cls-9{fill:#3a1e55;opacity:0.75;}.cls-10,.cls-19{fill:#ebf1fa;}.cls-11{fill:#c1c5c9;}.cls-12{fill:#868687;opacity:0.25;}.cls-13{fill:#dadfe5;}.cls-14{fill:#e11e2e;}.cls-15{fill:#ef4362;}.cls-16,.cls-38{fill:#25409a;}.cls-17{fill:#1e2a58;}.cls-18{fill:#3f4e60;}.cls-19{stroke:#ecf1fa;stroke-width:0.1px;}.cls-19,.cls-27,.cls-30,.cls-33{stroke-miterlimit:10;}.cls-20{fill:#321849;}.cls-21{fill:#660f1a;}.cls-22{fill:#bcdcf4;}.cls-23{fill:#cce1f1;}.cls-24,.cls-35{fill:#ad1f23;}.cls-25{clip-path:url(#clip-path);}.cls-27{stroke:#a2a5a9;stroke-width:10px;}.cls-28{fill:#53687f;}.cls-29{clip-path:url(#clip-path-2);}.cls-30{stroke:#ebf1fa;stroke-width:2px;}.cls-31,.cls-36{fill:#253e86;}.cls-32{clip-path:url(#clip-path-3);}.cls-33{stroke:#8babd9;stroke-width:3px;}.cls-34{fill:#192851;}.cls-35,.cls-36,.cls-37{font-size:55.89px;}.cls-35,.cls-36,.cls-37,.cls-38,.cls-39,.cls-40{font-family:ShowcardGothic-Reg, Showcard Gothic;}.cls-38,.cls-39,.cls-40{font-size:54.63px;}</style><clipPath id="clip-path"><path class="cls-1" d="M599.31,531.13l-84.77,84.78a9.78,9.78,0,0,0,0,13.83h0a9.78,9.78,0,0,0,13.83,0l71.35-71.35Z"/></clipPath><clipPath id="clip-path-2"><path class="cls-1" d="M568.18,78.55l4.56,4.53a4.76,4.76,0,0,1-.23,7l-16.74,14.61a2.07,2.07,0,0,1-2.81-.09l-6.15-6.11a2.08,2.08,0,0,1-.11-2.81l14.5-16.84A4.77,4.77,0,0,1,568.18,78.55Z"/></clipPath><clipPath id="clip-path-3"><path class="cls-1" d="M639,55.38a5.69,5.69,0,0,0,.37-8.41L603.62,11.48a5.41,5.41,0,0,0-8,.41l-2.87,3.5,43,42.68Z"/></clipPath></defs><title>opening</title><g id="Layer_2" data-name="Layer 2"><g id="Layer_1-2" data-name="Layer 1"><path class="cls-2" d="M801,206.49s30.76-149,169.85-80.79C970.83,125.7,955.76,270,801,206.49Z"/><path class="cls-3" d="M798.79,201.89l69.33-31.18,34.73-15.43c11.6-5.1,23.19-10.23,34.89-15.07-11.32,5.67-22.5,11.62-33.69,17.54l-33.51,17.9-66.85,36.09Z"/><path class="cls-3" d="M903.09,155.54a6.8,6.8,0,0,1-.14-1c0-.31,0-.55,0-.82,0-.53,0-1,0-1.53a14.32,14.32,0,0,1,.11-1.47c.05-.48.08-1,.17-1.43a25,25,0,0,1,.56-2.76,23.17,23.17,0,0,1,.79-2.65,34.58,34.58,0,0,1,5.05-9.3l1.63-2c.54-.65,1.17-1.22,1.75-1.82a39.74,39.74,0,0,1,3.71-3.31c1.28-1,2.67-1.91,4-2.85l4.16-2.42-3.26,3.46c-1,1.26-2,2.43-2.88,3.7a37.05,37.05,0,0,0-2.41,3.91c-.34.67-.74,1.31-1,2l-.86,2a26.8,26.8,0,0,0-1.75,8.28,17,17,0,0,0,0,2,15.7,15.7,0,0,0,.19,1.95,16.42,16.42,0,0,0,.38,1.83,8.12,8.12,0,0,0,.26.83,3.17,3.17,0,0,0,.14.35c0,.08.11.26.11.14Z"/><path class="cls-3" d="M889.74,163c.12.12.42-1,.61-.88l.64.51c.44.34.89.67,1.34,1,.92.65,1.87,1.28,2.84,1.88a59.73,59.73,0,0,0,6.06,3.27,64.24,64.24,0,0,0,13.15,4.52c1.13.27,2.29.47,3.44.69s2.32.38,3.49.5a69,69,0,0,0,7.05.46,74,74,0,0,0,14.21-1.26,74.77,74.77,0,0,1-14.14,2.85,70.22,70.22,0,0,1-7.27.34c-1.22,0-2.44-.07-3.66-.11s-2.44-.17-3.65-.33a67.88,67.88,0,0,1-14.41-3.22,66.48,66.48,0,0,1-6.93-2.8c-1.13-.54-2.25-1.11-3.36-1.72-.55-.31-1.1-.63-1.65-1l-.83-.52-.89-.6Z"/><path class="cls-3" d="M859.41,176.51c-.09-.72-.11-1.23-.15-1.83l-.07-1.71c0-1.13-.05-2.25,0-3.37q0-3.36.31-6.68a75.26,75.26,0,0,1,2.23-13.12,50.28,50.28,0,0,1,5-12.24,38.82,38.82,0,0,1,3.81-5.31,32.83,32.83,0,0,1,4.69-4.38A33,33,0,0,0,871.6,133a37.45,37.45,0,0,0-2.42,5.67,46.23,46.23,0,0,0-2.06,12,68.77,68.77,0,0,0,.59,12.09c.26,2,.6,4,1,5.94.21,1,.43,1.94.68,2.9l.38,1.42c.13.44.27,1,.39,1.29Z"/><path class="cls-3" d="M838.34,184.9c1,.64,2.18,1.36,3.31,2s2.34,1.32,3.53,2c2.38,1.27,4.82,2.47,7.28,3.61a136.33,136.33,0,0,0,15.23,5.92,104.94,104.94,0,0,0,16,3.77,83.35,83.35,0,0,0,16.59.79,85.2,85.2,0,0,1-16.77,2,110.73,110.73,0,0,1-17-1.15,143.38,143.38,0,0,1-16.83-3.53c-2.77-.77-5.53-1.6-8.27-2.53-1.37-.46-2.74-.95-4.11-1.46s-2.68-1-4.18-1.69Z"/><path class="cls-4" d="M970.83,125.7c-2-1-4-1.94-6-2.84-13.88,39.88-53,101.85-159.2,67.76A139.78,139.78,0,0,0,801,206.49C955.76,270,970.83,125.7,970.83,125.7Z"/><path class="cls-2" d="M344.06,484s-70.18,135-185.43,31.46C158.63,515.43,212.43,380.72,344.06,484Z"/><path class="cls-3" d="M344.91,489l-75.19,11.1-37.63,5.39c-12.54,1.75-25.09,3.53-37.67,5,12.44-2.38,24.81-5.06,37.19-7.7l37.12-8.1,74.16-16.51Z"/><path class="cls-3" d="M231.94,505.17a8.8,8.8,0,0,1-.15,1c0,.3-.12.53-.18.79-.12.52-.28,1-.43,1.47a14,14,0,0,1-.5,1.38,14.32,14.32,0,0,1-.56,1.33,25.75,25.75,0,0,1-1.29,2.51,24.19,24.19,0,0,1-1.48,2.33,34.18,34.18,0,0,1-7.4,7.58l-2.1,1.46c-.7.48-1.46.86-2.19,1.29a40.88,40.88,0,0,1-4.47,2.17c-1.51.64-3.08,1.11-4.59,1.65l-4.66,1.2,4.08-2.44c1.27-.94,2.58-1.79,3.77-2.78a37.22,37.22,0,0,0,3.39-3.1c.51-.55,1.07-1.06,1.54-1.64l1.38-1.74a27,27,0,0,0,3.94-7.49,15.67,15.67,0,0,0,.55-1.94,17.08,17.08,0,0,0,.35-1.93,15.35,15.35,0,0,0,.13-1.87,8.23,8.23,0,0,0,0-.87,3.71,3.71,0,0,0,0-.38c0-.08,0-.28-.07-.15Z"/><path class="cls-3" d="M246.81,501.62c-.08-.14-.68.89-.82.68l-.48-.66c-.33-.45-.67-.89-1-1.33-.7-.88-1.45-1.74-2.21-2.58a64,64,0,0,0-4.94-4.8A64.7,64.7,0,0,0,225.91,485c-1-.57-2.07-1.07-3.12-1.6s-2.12-1-3.22-1.43a66.56,66.56,0,0,0-6.66-2.36,74.88,74.88,0,0,0-14-2.67,75.6,75.6,0,0,1,14.37,1.11,72.16,72.16,0,0,1,7.09,1.66c1.18.32,2.33.73,3.49,1.1s2.31.83,3.43,1.31a68,68,0,0,1,13,7,66.1,66.1,0,0,1,5.9,4.58c.94.83,1.87,1.68,2.76,2.57.45.45.9.91,1.33,1.38l.66.73c.22.26.42.48.68.82Z"/><path class="cls-3" d="M279.68,496.9c-.12.71-.23,1.21-.36,1.8l-.39,1.66c-.28,1.1-.57,2.18-.89,3.26-.62,2.15-1.33,4.26-2.11,6.34a75.17,75.17,0,0,1-5.73,12,50,50,0,0,1-8.12,10.42,38.9,38.9,0,0,1-5.11,4.08,33.12,33.12,0,0,1-5.71,2.93,32.93,32.93,0,0,0,4.84-4,36.87,36.87,0,0,0,3.88-4.8,46.19,46.19,0,0,0,5.24-11A68.23,68.23,0,0,0,268,507.87c.28-2,.5-4,.63-6,.06-1,.11-2,.14-3l0-1.47c0-.46,0-1,0-1.35Z"/><path class="cls-3" d="M302.24,494.56c-.76-.88-1.73-1.9-2.64-2.84s-1.89-1.91-2.86-2.85c-1.95-1.87-4-3.68-6-5.46a136.77,136.77,0,0,0-13.05-9.85,105.77,105.77,0,0,0-14.37-8,83.3,83.3,0,0,0-15.75-5.28A85.06,85.06,0,0,1,264.22,463a108.5,108.5,0,0,1,16.08,5.75,141.38,141.38,0,0,1,15.23,8c2.46,1.5,4.89,3.05,7.27,4.69q1.8,1.23,3.55,2.53c1.2.88,2.31,1.72,3.57,2.76Z"/><path class="cls-4" d="M257.11,445.16c14.4,6.2,30,15.53,46.95,28.81,0,0-37.61,72.32-103,70.48,89.8,41.79,143-60.48,143-60.48C310,457.25,281.16,446.47,257.11,445.16Z"/><path class="cls-5" d="M822.84,189.38S689.66,215,698.26,77.15C698.26,77.15,822.2,40.25,822.84,189.38Z"/><path class="cls-6" d="M819.4,193.2l-49.17-46.64-24.48-23.43c-8.13-7.85-16.28-15.67-24.24-23.69,8.58,7.34,17.33,14.47,26.06,21.63l26.29,21.35,52.76,42.49Z"/><path class="cls-6" d="M746.35,123.2a6,6,0,0,1-.84.48c-.25.14-.46.22-.68.32-.45.21-.88.36-1.31.52a25.92,25.92,0,0,1-2.54.75,25.42,25.42,0,0,1-2.53.46,21.09,21.09,0,0,1-2.5.22,30.32,30.32,0,0,1-9.5-1.12l-2.21-.7c-.72-.23-1.41-.57-2.11-.85a39.1,39.1,0,0,1-4-2c-1.28-.73-2.47-1.59-3.67-2.37l-3.39-2.66,4,1.43c1.37.35,2.7.77,4,1a31.66,31.66,0,0,0,4,.57c.68,0,1.33.14,2,.13l2,0a23.83,23.83,0,0,0,7.3-1.53,14.81,14.81,0,0,0,1.62-.73,14.17,14.17,0,0,0,1.48-.84,12.26,12.26,0,0,0,1.31-1,5.47,5.47,0,0,0,.55-.5c.08-.08.19-.16.22-.23s.16-.18,0-.11Z"/><path class="cls-6" d="M756.7,131.16c0-.14-1,0-.94-.2l.21-.7c.13-.47.25-1,.36-1.45.22-1,.41-2,.58-3a53.8,53.8,0,0,0,.62-6.11,57.22,57.22,0,0,0-.78-12.37c-.16-1-.39-2-.6-3.07s-.48-2-.78-3a61.78,61.78,0,0,0-2-6A66.08,66.08,0,0,0,747.44,84a66.85,66.85,0,0,1,7.18,10.67,60.34,60.34,0,0,1,2.76,5.87c.43,1,.78,2,1.16,3s.7,2.07,1,3.12a61.41,61.41,0,0,1,2.27,13,59.31,59.31,0,0,1,.06,6.67c-.06,1.11-.14,2.23-.27,3.35-.07.57-.14,1.13-.23,1.7l-.15.86c-.05.3-.1.55-.19.93Z"/><path class="cls-6" d="M778.51,152c-.58.32-1,.51-1.48.74l-1.4.64c-.94.41-1.87.79-2.81,1.16-1.87.74-3.76,1.39-5.67,2a67.82,67.82,0,0,1-11.67,2.52,44.35,44.35,0,0,1-11.85-.06,34.76,34.76,0,0,1-5.69-1.39,29,29,0,0,1-5.19-2.44,28.41,28.41,0,0,0,5.49,1.1,32.34,32.34,0,0,0,5.48,0,40.25,40.25,0,0,0,10.48-2.54,59.81,59.81,0,0,0,9.64-4.73c1.53-.92,3-1.89,4.48-2.92.72-.52,1.43-1,2.12-1.58l1-.8c.31-.26.69-.57.89-.77Z"/><path class="cls-6" d="M791.7,165.94c.21-1,.4-2.23.56-3.38s.32-2.36.44-3.56c.27-2.38.44-4.79.57-7.2a121.71,121.71,0,0,0-.18-14.54,93.79,93.79,0,0,0-2.22-14.46,74.35,74.35,0,0,0-4.88-14,75.37,75.37,0,0,1,7.49,13.09,98.8,98.8,0,0,1,5,14.42,127.85,127.85,0,0,1,3,15.09c.34,2.55.63,5.12.82,7.7q.15,1.94.24,3.9c0,1.33.09,2.57.07,4.06Z"/><path class="cls-7" d="M765.34,79c15.87,17.24,27.3,45.3,27.5,90.34,0,0-36.92,7.09-70.63-6.3,36.36,38.65,100.63,26.3,100.63,26.3C822.53,118.84,794.65,89.92,765.34,79Z"/><path class="cls-5" d="M342.73,449.22s159,105.45,14.59,235.4C357.32,684.62,196.5,599.62,342.73,449.22Z"/><path class="cls-6" d="M347.72,448.94q2.38,47.58,4.56,95.18l2.07,47.6c.62,15.86,1.29,31.74,1.57,47.61-1.2-15.83-2.78-31.62-4.32-47.42l-4.81-47.39q-4.91-47.37-10-94.72Z"/><path class="cls-6" d="M354.11,593.23a11.49,11.49,0,0,1,1.15.28c.34.09.61.2.92.3.6.2,1.15.43,1.7.66s1.09.48,1.61.75,1.05.5,1.54.8a33.64,33.64,0,0,1,2.89,1.82c.46.33.94.63,1.38,1l1.3,1.06a42,42,0,0,1,8.49,9.79l1.6,2.73c.52.91.91,1.89,1.36,2.82A50.93,50.93,0,0,1,380.3,621a29.68,29.68,0,0,1,.84,2.93l.76,2.92,1,5.92-2.34-5.47-1.38-2.61a28.68,28.68,0,0,0-1.42-2.55,48.93,48.93,0,0,0-3.29-4.76c-.6-.74-1.14-1.52-1.79-2.21l-1.94-2a35.53,35.53,0,0,0-8.78-6.35l-1.18-.57c-.39-.19-.81-.32-1.21-.49a21.54,21.54,0,0,0-2.42-.82c-.4-.14-.81-.2-1.21-.3a10.45,10.45,0,0,0-1.19-.24c-.4-.06-.79-.13-1.15-.15-.18,0-.39,0-.53,0s-.38,0-.31,0Z"/><path class="cls-6" d="M351.82,572.82c-.19.09,1,1,.74,1.13l-.89.5c-.6.35-1.19.72-1.79,1.09-1.19.77-2.36,1.58-3.51,2.42a79,79,0,0,0-6.64,5.52,80.39,80.39,0,0,0-11.4,13.19c-.86,1.2-1.62,2.45-2.42,3.68s-1.53,2.52-2.21,3.83a84.94,84.94,0,0,0-3.83,8,93,93,0,0,0-5.19,17.12,94.49,94.49,0,0,1,3.3-17.78,86.27,86.27,0,0,1,3-8.62c.55-1.43,1.21-2.8,1.84-4.2s1.33-2.77,2.08-4.11a85.92,85.92,0,0,1,17-22c1.16-1.06,2.35-2.1,3.58-3.1.62-.5,1.25-1,1.9-1.47l1-.72c.35-.25.65-.46,1.11-.75Z"/><path class="cls-6" d="M350.05,532.59c.83.22,1.44.41,2.14.63l2,.66c1.32.46,2.62.94,3.91,1.44,2.59,1,5.12,2.1,7.61,3.29A93.35,93.35,0,0,1,380,547a72.37,72.37,0,0,1,6.39,5.19,59.72,59.72,0,0,1,5.62,6,48.55,48.55,0,0,1,4.52,6.76,42.1,42.1,0,0,1,3,7.42,41.77,41.77,0,0,0-4.19-6.66A46,46,0,0,0,390,560a54.88,54.88,0,0,0-6.16-4.61,66.52,66.52,0,0,0-6.7-3.74,86.6,86.6,0,0,0-14.32-5.35c-2.45-.68-4.93-1.28-7.41-1.77-1.24-.25-2.48-.48-3.72-.67l-1.85-.27c-.59-.08-1.27-.17-1.74-.2Z"/><path class="cls-6" d="M349.49,501.7c-1.22.89-2.6,2-3.9,3S343,506.89,341.7,508c-2.57,2.23-5.07,4.57-7.53,7a170.85,170.85,0,0,0-13.8,15.26,132.14,132.14,0,0,0-11.61,17.1l-2.46,4.59c-.43.75-.75,1.55-1.11,2.34l-1.07,2.38L303.06,559c-.36.8-.6,1.63-.91,2.45l-1.75,4.94,1.09-5.14c.2-.86.34-1.73.59-2.58l.75-2.53.76-2.53c.26-.85.48-1.71.81-2.53l1.88-5a137.19,137.19,0,0,1,9.56-19A177.71,177.71,0,0,1,328,509.46c2.22-2.81,4.5-5.58,6.89-8.27,1.19-1.35,2.41-2.69,3.65-4s2.48-2.59,3.92-4Z"/><path class="cls-7" d="M383.76,487.4c22.06,42.67,26.2,101.84-46.44,167.22a175.8,175.8,0,0,1-45-36.93c21,43.68,65,66.93,65,66.93C449,602.08,418.35,529.43,383.76,487.4Z"/><path class="cls-8" d="M852,203.35H324.52a16.38,16.38,0,0,0-16.32,16.32V503.82a16.37,16.37,0,0,0,16.32,16.31H852a16.36,16.36,0,0,0,16.32-16.31V219.67A16.37,16.37,0,0,0,852,203.35Z"/><path class="cls-9" d="M852,203.35h-36.7V520.13H852a16.36,16.36,0,0,0,16.32-16.31V219.67A16.37,16.37,0,0,0,852,203.35Z"/><path class="cls-10" d="M359.63,157.13H534.44A53.83,53.83,0,0,1,588.27,211V474.14a12,12,0,0,1-12,12H359.63a12,12,0,0,1-12-12v-305A12,12,0,0,1,359.63,157.13Z"/><path class="cls-11" d="M585.44,481.86a62.25,62.25,0,0,0-59.24-43.73H347.63v36a12,12,0,0,0,12,12H576.27A12,12,0,0,0,585.44,481.86Z"/><path class="cls-12" d="M534.44,157.13h-30A54,54,0,0,1,558.27,211V474.14a12,12,0,0,1-12,12h30a12,12,0,0,0,12-12V211A54,54,0,0,0,534.44,157.13Z"/><rect class="cls-13" x="381.62" y="211.51" width="87.01" height="16.31" rx="8.16" ry="8.16"/><rect class="cls-13" x="381.96" y="293.43" width="120.32" height="16.31" rx="8.16" ry="8.16"/><rect class="cls-13" x="381.96" y="252.64" width="146.49" height="16.31" rx="8.16" ry="8.16"/><rect class="cls-13" x="381.96" y="334.21" width="62.2" height="16.31" rx="8.16" ry="8.16"/><rect class="cls-13" x="382.3" y="375.34" width="153.63" height="16.31" rx="8.16" ry="8.16"/><path class="cls-10" d="M600.27,157.13H816.91a12,12,0,0,1,12,12V432.31a53.83,53.83,0,0,1-53.83,53.83H600.27a12,12,0,0,1-12-12v-305a12,12,0,0,1,12-12Z" transform="translate(1417.18 643.27) rotate(-180)"/><rect class="cls-13" x="638.24" y="375.34" width="87.01" height="16.31" rx="8.16" ry="8.16"/><rect class="cls-13" x="638.24" y="334.21" width="87.01" height="16.31" rx="8.16" ry="8.16"/><rect class="cls-13" x="637.22" y="293.42" width="120.32" height="16.31" rx="8.16" ry="8.16"/><rect class="cls-13" x="637.56" y="252.98" width="145.13" height="16.31" rx="8.16" ry="8.16"/><rect class="cls-13" x="637.56" y="211.51" width="61.86" height="16.31" rx="8.16" ry="8.16"/><rect class="cls-13" x="737.48" y="334.55" width="45.21" height="57.1" rx="7.33" ry="7.33" transform="translate(1520.17 726.2) rotate(180)"/><path class="cls-11" d="M590.63,481.86a62.25,62.25,0,0,1,59.23-43.73H828.44v36a12,12,0,0,1-12,12H599.8A12,12,0,0,1,590.63,481.86Z"/><path class="cls-12" d="M816.81,157.13h-38.2a16.36,16.36,0,0,1,16.31,16.31V469.83a16.36,16.36,0,0,1-16.31,16.31H818.3a10.64,10.64,0,0,0,10.61-10.61V169.23A12.14,12.14,0,0,0,816.81,157.13Z"/><path class="cls-14" d="M788.85,522.33l-13.29-16.87a3,3,0,0,0-4.71,0l-13.29,16.87a3,3,0,0,1-5.36-1.86V462.13a3,3,0,0,1,3-3h36a3,3,0,0,1,3,3v58.34A3,3,0,0,1,788.85,522.33Z"/><path class="cls-14" d="M964.23,371.91l24.44-157.35-91.39,68Zm-.37-115.75L953.1,325.39l-29.45-39.31Z"/><polygon class="cls-15" points="963.96 371.42 964.22 371.56 988.63 214.39 977.66 222.55 957.16 362.35 963.96 371.42"/><ellipse class="cls-16" cx="977.21" cy="564.5" rx="74.63" ry="18.81" transform="translate(-112.94 856.33) rotate(-45)"/><path class="cls-10" d="M936.88,582.68,959,604.82a229.76,229.76,0,0,0,18.1-14.47L952,563.84A228.85,228.85,0,0,0,936.88,582.68Z"/><path class="cls-17" d="M1030,511.72a5,5,0,0,0-.8-.64C1024,525.4,1008,547.66,985.92,569.7c-24.42,24.43-49.12,41.48-63,44.54a5.64,5.64,0,0,0,1.48,3c7.35,7.35,36.93-10.32,66.08-39.47S1037.33,519.07,1030,511.72Z"/><path class="cls-2" d="M934.23,627a22.82,22.82,0,0,0-13.69-19c-8.13-3.63-19.46-5.92-25.11,5.39-9.41,18.81-6.28,28.22-28.23,31.36,0,0,31.88,37.76,59.58,3.13C933.08,640,934.63,632.9,934.23,627Z"/><path class="cls-18" d="M934.23,627a22,22,0,0,0-4.91-12.32c.1.64.18,1.28.22,1.93.45,6.46-1.26,14.2-8.15,22.82-18,22.54-37.69,17.06-50.65,8.91,9,8.56,33.87,27.2,56-.51C933.08,640,934.63,632.9,934.23,627Z"/><path class="cls-8" d="M102.54,602.43l97.64,97.63,34,8.09L226,674.29l-97.64-97.64a18.23,18.23,0,0,0-25.78,0h0A18.23,18.23,0,0,0,102.54,602.43Z"/><polygon class="cls-19" points="199.95 699.83 200.18 700.06 234.16 708.15 225.96 674.28 225.72 674.05 199.95 699.83"/><path class="cls-2" d="M225.77,706.15l8.39,2-2.09-8.63A14.22,14.22,0,0,0,225.77,706.15Z"/><rect class="cls-10" x="116.01" y="570.88" width="15.93" height="53.85" rx="5.47" ry="5.47" transform="translate(-211.08 1108.17) rotate(-135)"/><path class="cls-20" d="M115.28,580.77l100,100a48.45,48.45,0,0,1,12.84,22.88l.79,3.26,5.26,1.25L226,674.29l-97.64-97.64a18.22,18.22,0,0,0-24-1.56A20.34,20.34,0,0,1,115.28,580.77Z"/><ellipse class="cls-14" cx="297.01" cy="130.67" rx="47.88" ry="12.77" transform="translate(10.93 283.8) rotate(-51.91)"/><path class="cls-21" d="M326.55,93c-1.56-1.22-4.09-1-7.27.3-1.43,9.75-10.23,26.46-23.53,43.42-10.29,13.14-21.09,23.62-29.67,29.41a4.09,4.09,0,0,0,1.39,2.24c5.54,4.35,23.27-9,39.58-29.81S332.1,97.34,326.55,93Z"/><circle class="cls-2" cx="346.57" cy="71.83" r="42.7"/><circle class="cls-22" cx="346.57" cy="71.83" r="35.45"/><path class="cls-23" d="M360.35,104.51a35.37,35.37,0,0,0,7.28-4.16L325.22,43.53a35.48,35.48,0,0,0-12.39,17.41Z"/><path class="cls-23" d="M336.61,52.25l34.48,45.17a35.52,35.52,0,0,0,6-7.53Z"/><path class="cls-14" d="M588.75,554.78h0a24.08,24.08,0,0,0-34,0l-42.7,42.69a26.82,26.82,0,0,0-11.92,6.9L488.58,616a27.08,27.08,0,0,0,0,38.2l3.86,3.86a27.08,27.08,0,0,0,38.2,0l11.6-11.6a26.89,26.89,0,0,0,7.88-19.06l38.63-38.63A24.08,24.08,0,0,0,588.75,554.78Z"/><path class="cls-24" d="M588.75,554.78h0a23.91,23.91,0,0,0-5.73-4.23,24.09,24.09,0,0,1-4.13,28.38l-38.6,38.6a26.94,26.94,0,0,1-7.87,19.06l-11.59,11.59a27.12,27.12,0,0,1-35.07,2.67,26.65,26.65,0,0,0,2.82,3.32l3.86,3.86a27.08,27.08,0,0,0,38.2,0l11.6-11.6a26.89,26.89,0,0,0,7.88-19.06l38.63-38.63A24.08,24.08,0,0,0,588.75,554.78Z"/><path class="cls-10" d="M599.31,531.13l-84.77,84.78a9.78,9.78,0,0,0,0,13.83h0a9.78,9.78,0,0,0,13.83,0l71.35-71.35Z"/><g class="cls-25"><g class="cls-26"><line class="cls-27" x1="517.56" y1="595.58" x2="526.42" y2="645.88"/><line class="cls-27" x1="535.2" y1="579.49" x2="544.05" y2="629.79"/><line class="cls-27" x1="552.83" y1="563.41" x2="561.69" y2="613.71"/><line class="cls-27" x1="570.46" y1="547.32" x2="579.32" y2="597.62"/><line class="cls-27" x1="588.1" y1="531.23" x2="596.95" y2="581.54"/><line class="cls-27" x1="605.73" y1="515.15" x2="614.59" y2="565.45"/></g></g><rect class="cls-2" x="523.52" y="591.97" width="28.13" height="28.13" rx="3.71" ry="3.71" transform="translate(-271.08 557.63) rotate(-45)"/><path class="cls-28" d="M554.9,603.46l-4.79-4.79-19.77,19.77-.13.11,4.8,4.8a3.63,3.63,0,0,0,5.15,0l14.74-14.73A3.66,3.66,0,0,0,554.9,603.46Z"/><path class="cls-8" d="M176,286.63a11,11,0,0,1-11.88-4.9c-2.59-4.17-4.94-6.57-6.24-6s-1.25,3.9-.12,8.68a11,11,0,0,1-4.9,11.88c-4.17,2.6-6.57,4.95-6,6.25s3.9,1.24,8.68.12a11,11,0,0,1,11.88,4.9c2.59,4.17,4.94,6.57,6.24,6s1.25-3.9.12-8.68A11,11,0,0,1,178.6,293c4.17-2.6,6.57-4.95,6-6.24S180.73,285.51,176,286.63Zm-3,7.09a6.14,6.14,0,0,0-2.74,6.64c.63,2.67.65,4.55-.07,4.85s-2-1-3.49-3.37A6.16,6.16,0,0,0,160,299.1c-2.68.63-4.56.66-4.86-.07s1-2,3.37-3.49a6.14,6.14,0,0,0,2.74-6.64c-.63-2.67-.65-4.55.07-4.85s2,1,3.49,3.37a6.16,6.16,0,0,0,6.64,2.74c2.68-.63,4.55-.66,4.86.07S175.24,292.27,172.92,293.72Z"/><path class="cls-10" d="M851,48.83a11,11,0,0,1-12.12,4.28c-4.71-1.37-8.06-1.59-8.67-.32s1.67,3.73,5.7,6.54a11,11,0,0,1,4.28,12.12c-1.38,4.72-1.59,8.07-.33,8.67s3.74-1.67,6.55-5.69a11,11,0,0,1,12.12-4.28c4.71,1.37,8.06,1.59,8.67.32s-1.67-3.73-5.7-6.54a11,11,0,0,1-4.28-12.12c1.37-4.72,1.59-8.07.33-8.67S853.81,44.81,851,48.83Zm2.47,7.31a6.14,6.14,0,0,0,2.39,6.77c2.25,1.57,3.52,3,3.18,3.66s-2.21.59-4.84-.18a6.15,6.15,0,0,0-6.78,2.39c-1.57,2.26-2.95,3.53-3.66,3.19s-.58-2.21.18-4.85a6.14,6.14,0,0,0-2.39-6.77c-2.25-1.57-3.52-3-3.18-3.66s2.21-.59,4.84.18A6.16,6.16,0,0,0,850,54.48c1.57-2.26,3-3.53,3.66-3.19S854.23,53.5,853.47,56.14Z"/><path class="cls-16" d="M134,712.94a9,9,0,0,1-9.92-3.61c-2.28-3.33-4.29-5.22-5.33-4.74s-.89,3.25.19,7.13a9,9,0,0,1-3.61,9.92c-3.33,2.27-5.22,4.29-4.73,5.33s3.24.89,7.12-.2a9.06,9.06,0,0,1,9.92,3.62c2.28,3.33,4.29,5.22,5.33,4.73s.89-3.24-.19-7.12a9,9,0,0,1,3.61-9.92c3.33-2.28,5.22-4.29,4.73-5.33S137.86,711.85,134,712.94Zm-2.25,5.92a5,5,0,0,0-2,5.55c.61,2.17.69,3.71.11,4s-1.71-.78-3-2.65a5.08,5.08,0,0,0-5.55-2c-2.17.61-3.71.7-4,.11s.78-1.7,2.64-3a5,5,0,0,0,2-5.54c-.6-2.17-.69-3.71-.11-4s1.71.79,3,2.65a5.05,5.05,0,0,0,5.55,2c2.17-.61,3.71-.69,4-.11S133.59,717.59,131.73,718.86Z"/><path class="cls-16" d="M889,43.94a9,9,0,0,1-9.92-3.61c-2.28-3.33-4.29-5.22-5.33-4.74s-.89,3.25.19,7.13a9,9,0,0,1-3.61,9.92c-3.33,2.27-5.22,4.29-4.73,5.33s3.24.89,7.12-.2a9.06,9.06,0,0,1,9.92,3.62c2.28,3.33,4.29,5.22,5.33,4.73s.89-3.24-.19-7.12a9,9,0,0,1,3.61-9.92c3.33-2.28,5.22-4.29,4.73-5.33S892.86,42.85,889,43.94Zm-2.25,5.92a5,5,0,0,0-2,5.55c.61,2.17.69,3.71.11,4s-1.71-.78-3-2.65a5.08,5.08,0,0,0-5.55-2c-2.17.61-3.71.7-4,.11s.78-1.7,2.64-3a5,5,0,0,0,2-5.54c-.6-2.17-.69-3.71-.11-4s1.71.79,3,2.65a5.05,5.05,0,0,0,5.55,2c2.17-.61,3.71-.69,4-.11S888.59,48.59,886.73,49.86Z"/><path class="cls-14" d="M996.13,690.27a5.63,5.63,0,0,1-3.76,5.39c-2.37.84-3.83,1.75-3.7,2.45s1.81,1.06,4.32,1a5.64,5.64,0,0,1,5.39,3.77c.83,2.36,1.74,3.82,2.45,3.7s1-1.81,1-4.32a5.63,5.63,0,0,1,3.76-5.39c2.37-.84,3.83-1.75,3.7-2.45s-1.81-1.06-4.32-1a5.61,5.61,0,0,1-5.39-3.76c-.83-2.36-1.74-3.82-2.45-3.7S996.1,687.76,996.13,690.27Zm3.2,2.3a3.16,3.16,0,0,0,3,2.11c1.4,0,2.34.17,2.41.57s-.74.9-2.07,1.37a3.14,3.14,0,0,0-2.1,3c0,1.4-.18,2.35-.57,2.42s-.91-.75-1.37-2.07a3.16,3.16,0,0,0-3-2.11c-1.4,0-2.34-.17-2.41-.57s.74-.9,2.07-1.37a3.15,3.15,0,0,0,2.1-3c0-1.41.18-2.35.57-2.42S998.86,691.25,999.33,692.57Z"/><path class="cls-14" d="M138.13,263.27a5.63,5.63,0,0,1-3.76,5.39c-2.37.84-3.83,1.75-3.7,2.45s1.81,1.06,4.32,1a5.64,5.64,0,0,1,5.39,3.77c.83,2.36,1.74,3.82,2.45,3.7s1-1.81,1-4.32a5.63,5.63,0,0,1,3.76-5.39c2.37-.84,3.83-1.75,3.7-2.45s-1.81-1.06-4.32-1a5.61,5.61,0,0,1-5.39-3.76c-.83-2.36-1.74-3.82-2.45-3.7S138.1,260.76,138.13,263.27Zm3.2,2.3a3.16,3.16,0,0,0,3,2.11c1.4,0,2.34.17,2.41.57s-.74.9-2.07,1.37a3.14,3.14,0,0,0-2.1,3c0,1.4-.18,2.35-.57,2.42s-.91-.75-1.37-2.07a3.16,3.16,0,0,0-3-2.11c-1.4,0-2.34-.17-2.41-.57s.74-.9,2.07-1.37a3.15,3.15,0,0,0,2.1-3c0-1.41.18-2.35.57-2.42S140.86,264.25,141.33,265.57Z"/><path class="cls-8" d="M1016.13,29.27a5.63,5.63,0,0,1-3.76,5.39c-2.37.84-3.83,1.75-3.7,2.45s1.81,1.06,4.32,1a5.64,5.64,0,0,1,5.39,3.77c.83,2.36,1.74,3.82,2.45,3.7s1-1.81,1-4.32a5.63,5.63,0,0,1,3.76-5.39c2.37-.84,3.83-1.75,3.7-2.45s-1.81-1.06-4.32-1a5.61,5.61,0,0,1-5.39-3.76c-.83-2.36-1.74-3.82-2.45-3.7S1016.1,26.76,1016.13,29.27Zm3.2,2.3a3.16,3.16,0,0,0,3,2.11c1.4,0,2.34.17,2.41.57s-.74.9-2.07,1.37a3.14,3.14,0,0,0-2.1,3c0,1.4-.18,2.35-.57,2.42s-.91-.75-1.37-2.07a3.16,3.16,0,0,0-3-2.11c-1.4,0-2.34-.17-2.41-.57s.74-.9,2.07-1.37a3.15,3.15,0,0,0,2.1-3c0-1.41.18-2.35.57-2.42S1018.86,30.25,1019.33,31.57Z"/><path class="cls-2" d="M568.18,78.55l4.56,4.53a4.76,4.76,0,0,1-.23,7l-16.74,14.61a2.07,2.07,0,0,1-2.81-.09l-6.15-6.11a2.08,2.08,0,0,1-.11-2.81l14.5-16.84A4.77,4.77,0,0,1,568.18,78.55Z"/><g class="cls-29"><line class="cls-30" x1="549.68" y1="104.91" x2="569.2" y2="87.16"/><line class="cls-30" x1="546.13" y1="101.36" x2="563.88" y2="81.83"/></g><path class="cls-31" d="M603.62,11.48,639.34,47a5.69,5.69,0,0,1-.37,8.41L586.29,99.19a14.51,14.51,0,0,1-19.51-.86L553,84.6a14.5,14.5,0,0,1-1-19.5l43.66-53.21A5.41,5.41,0,0,1,603.62,11.48Z"/><polygon class="cls-10" points="621.23 70.13 580.8 29.96 559.54 55.87 595.47 91.56 621.23 70.13"/><path class="cls-10" d="M639,55.38a5.69,5.69,0,0,0,.37-8.41L603.62,11.48a5.41,5.41,0,0,0-8,.41l-2.87,3.5,43,42.68Z"/><g class="cls-32"><line class="cls-33" x1="584.29" y1="17.04" x2="600.27" y2="1.06"/><line class="cls-33" x1="590.45" y1="23.2" x2="606.43" y2="7.22"/><line class="cls-33" x1="596.61" y1="29.35" x2="612.59" y2="13.38"/><line class="cls-33" x1="602.77" y1="35.51" x2="618.74" y2="19.53"/><line class="cls-33" x1="608.93" y1="41.67" x2="624.9" y2="25.69"/><line class="cls-33" x1="615.08" y1="47.83" x2="631.06" y2="31.85"/><line class="cls-33" x1="621.24" y1="53.99" x2="637.22" y2="38.01"/><line class="cls-33" x1="627.4" y1="60.14" x2="643.38" y2="44.17"/><line class="cls-33" x1="633.56" y1="66.3" x2="649.53" y2="50.32"/></g><path class="cls-34" d="M639.34,47,630,37.72a6.08,6.08,0,0,1-.75,8.6l-56.53,47a15.43,15.43,0,0,1-7.57,3.4l1.6,1.59a14.51,14.51,0,0,0,19.51.86L639,55.38A5.69,5.69,0,0,0,639.34,47Z"/><text class="cls-35" transform="translate(104.37 63.26)">1</text><text class="cls-36" transform="translate(149.4 85.78)">2</text><text class="cls-37" transform="translate(185.11 57.83)">3</text><text class="cls-38" transform="translate(0.6 450.03)">4</text><text class="cls-39" transform="translate(68.6 420.03)">6</text><text class="cls-40" transform="translate(50.5 502.72)">5</text><circle class="cls-10" cx="1011.2" cy="342.13" r="12"/></g></g></svg>